<?xml version="1.0" encoding="UTF-8"?>
<svg id="Layer_2" data-name="Layer 2" xmlns="http://www.w3.org/2000/svg" xmlns:xlink="http://www.w3.org/1999/xlink" viewBox="0 0 566.3 195.38">
  <defs>
    <style>
      .cls-1 {
        fill: url(#New_Gradient_Swatch_1-2);
      }

      .cls-2 {
        fill: url(#New_Gradient_Swatch_1-3);
      }

      .cls-3 {
        fill: url(#New_Gradient_Swatch_1);
      }

      .cls-4 {
        fill: #1C2433;
      }
    </style>
    <linearGradient id="New_Gradient_Swatch_1" data-name="New Gradient Swatch 1" x1="43.78" y1="39.57" x2="131.39" y2="140.96" gradientUnits="userSpaceOnUse">
      <stop offset="0" stop-color="#2EA7FF"/>
      <stop offset="1" stop-color="#7A5CFF"/>
    </linearGradient>
    <linearGradient id="New_Gradient_Swatch_1-2" data-name="New Gradient Swatch 1" x1="-10.28" y1="87.44" x2="77.19" y2="188.67" xlink:href="#New_Gradient_Swatch_1"/>
    <linearGradient id="New_Gradient_Swatch_1-3" data-name="New Gradient Swatch 1" x1="12.03" y1="62.04" x2="102.74" y2="167.02" xlink:href="#New_Gradient_Swatch_1"/>
  </defs>
  <g id="Layer_1-2" data-name="Layer 1">
    <g>
      <g>
        <path class="cls-4" d="M146.35,2.15v15.76h73.89V2.15h-73.89ZM174.96,3.68v90.26h16.67V3.68h-16.67Z"/>
        <path class="cls-4" d="M288.7,33.51c-1.58-4.07-4.13-7.31-7.64-9.71-3.52-2.4-8.24-3.6-14.16-3.6-4.59,0-8.69.97-12.31,2.91-3.62,1.94-6.56,4.97-8.8,9.1-1.44,2.65-2.54,5.84-3.31,9.57h-.21V2.12h-15.76v91.82h15.76v-42.37c0-3.68.69-6.74,2.07-9.18,1.37-2.45,3.39-4.36,6.04-5.74s5.76-2.07,9.33-2.07c3.88,0,6.96.8,9.26,2.38,2.29,1.58,3.9,3.62,4.82,6.12s1.37,5.33,1.37,8.49v42.37h15.92v-46.66c0-5.1-.8-9.69-2.38-13.77Z"/>
        <path class="cls-4" d="M363.74,36.27c-2.44-5-6.11-8.93-11.01-11.78-4.9-2.86-10.96-4.29-18.21-4.29s-13.92,1.53-19.43,4.59c-5.5,3.06-9.76,7.48-12.77,13.24-3.01,5.76-4.51,12.72-4.51,20.88s1.53,14.53,4.59,20.04c3.06,5.51,7.34,9.69,12.85,12.55,5.51,2.85,11.93,4.28,19.27,4.28,6.33,0,11.66-.97,15.99-2.91,4.34-1.93,7.85-4.66,10.56-8.18,2.7-3.52,4.66-7.57,5.89-12.16l-13.92-3.83c-.72,2.45-1.76,4.67-3.14,6.66-1.38,1.98-3.29,3.57-5.74,4.74-2.45,1.17-5.61,1.76-9.48,1.76-6.94,0-12.22-2.01-15.84-6.04-2.75-3.06-4.45-7.21-5.11-12.47h53.38c.2-1.94.31-3.68.31-5.2v-4.44c0-6.63-1.23-12.44-3.68-17.44ZM313.88,51.26c.73-4.95,2.36-8.82,4.89-11.63,3.57-3.97,8.66-5.96,15.29-5.96s11.45,1.91,14.46,5.73c2.31,2.95,3.68,6.9,4.09,11.86h-38.73Z"/>
        <path class="cls-4" d="M440.16,37.64c-3.01-5.6-7.26-9.91-12.77-12.92-5.51-3.01-11.94-4.52-19.28-4.52s-13.79,1.51-19.35,4.52c-5.56,3.01-9.85,7.32-12.85,12.92-3.01,5.61-4.52,12.35-4.52,20.2s1.48,14.61,4.44,20.27c2.96,5.66,7.16,10.02,12.62,13.08,5.46,3.06,12.01,4.59,19.66,4.59,11.42,0,20.37-3.39,26.85-10.17,6.48-6.78,9.72-16.04,9.72-27.77,0-7.85-1.51-14.59-4.52-20.2ZM423.49,74.9c-3.63,4.33-8.8,6.5-15.53,6.5-4.49,0-8.29-1.02-11.4-3.06-3.11-2.04-5.46-4.79-7.04-8.26s-2.37-7.55-2.37-12.24c0-7.04,1.84-12.67,5.51-16.91,3.67-4.23,8.77-6.35,15.3-6.35,4.48,0,8.26.95,11.32,2.83,3.06,1.89,5.43,4.57,7.11,8.04,1.69,3.47,2.53,7.6,2.53,12.39,0,7.04-1.81,12.72-5.43,17.06Z"/>
        <path class="cls-4" d="M489.04,22.19c-3.16,0-5.89.44-8.19,1.3-2.29.87-4.33,2.35-6.12,4.44-1.78,2.09-3.23,5.03-4.36,8.8-.74,2.48-1.39,5.39-1.96,8.72h-.33v-23.26h-15.76v71.75h15.76v-36.71c0-4.39.61-7.83,1.84-10.33,1.22-2.5,3.18-4.31,5.89-5.43,2.7-1.12,6.19-1.68,10.48-1.68h6.88v-17.6h-4.13Z"/>
        <path class="cls-4" d="M549.47,22.04l-8.72,26.31c-1.23,3.88-2.66,8.14-4.29,12.78-1.63,4.64-3.29,9.36-4.97,14.15-.29.82-.57,1.64-.85,2.45h-.4c-1.09-2.91-2.18-5.9-3.26-8.95-1.33-3.72-2.63-7.37-3.9-10.94-1.28-3.57-2.48-6.83-3.6-9.79l-9.48-26.01h-17.29l.06.15.4.96,28.95,69.72c-1.22,2.86-2.43,5.13-3.63,6.81-1.79,2.5-3.75,4.16-5.89,4.97-2.14.82-4.8,1.23-7.96,1.23-1.53,0-3.03-.11-4.51-.31s-3.04-.46-4.67-.76l-2.29,14.99c1.73.2,3.44.41,5.12.61,1.69.2,3.65.31,5.89.31,5.41,0,10.07-.92,14-2.76,3.93-1.83,7.37-4.64,10.33-8.41,2.95-3.78,5.66-8.67,8.11-14.69l29.68-72.82h-16.83Z"/>
        <path class="cls-4" d="M204.49,161.2c-.72,3.47-1.76,6.58-3.14,9.33-1.38,2.76-3.34,4.9-5.89,6.43-2.55,1.53-5.92,2.29-10.1,2.29s-7.88-.86-11.09-2.6c-3.21-1.73-5.69-4.38-7.42-7.95-1.74-3.57-2.6-7.81-2.6-12.7,0-7.86,1.94-13.72,5.81-17.6,3.88-3.87,8.88-5.81,15-5.81,3.77,0,6.96.71,9.56,2.14,2.6,1.43,4.69,3.44,6.27,6.04,1.58,2.61,2.73,5.64,3.44,9.11l15.3-2.45c-.92-6.22-2.75-11.5-5.51-15.83-2.75-4.34-6.47-7.65-11.16-9.95-4.7-2.29-10.66-3.44-17.9-3.44s-13.49,1.53-19.05,4.59c-5.56,3.06-9.9,7.39-13,13-3.12,5.61-4.67,12.39-4.67,20.35s1.53,14.92,4.59,20.58c3.06,5.66,7.39,9.92,13,12.77,5.61,2.86,12.19,4.29,19.74,4.29,10.3,0,18.18-2.63,23.63-7.88,5.46-5.26,8.95-12.42,10.48-21.5l-15.29-3.21Z"/>
        <path class="cls-4" d="M227.43,101.19v90.76h15.76v-90.76h-15.76Z"/>
        <path class="cls-4" d="M319.45,135.65c-3.01-5.61-7.26-9.92-12.77-12.93-5.51-3.01-11.93-4.51-19.28-4.51s-13.79,1.5-19.35,4.51-9.84,7.32-12.85,12.93c-3.01,5.61-4.51,12.34-4.51,20.19s1.47,14.61,4.43,20.28c2.96,5.66,7.17,10.02,12.62,13.08,5.46,3.05,12.01,4.59,19.66,4.59,11.43,0,20.37-3.39,26.85-10.18,6.48-6.78,9.72-16.04,9.72-27.77,0-7.85-1.51-14.58-4.52-20.19ZM302.78,172.9c-3.62,4.34-8.8,6.5-15.53,6.5-4.49,0-8.29-1.01-11.4-3.06-3.11-2.03-5.45-4.79-7.03-8.26-1.59-3.46-2.38-7.54-2.38-12.24,0-7.03,1.84-12.67,5.51-16.9,3.67-4.23,8.77-6.35,15.3-6.35,4.49,0,8.26.94,11.32,2.83,3.06,1.89,5.43,4.57,7.12,8.03,1.68,3.47,2.52,7.6,2.52,12.39,0,7.04-1.81,12.73-5.43,17.06Z"/>
        <path class="cls-4" d="M379.65,120.2v42.38c0,3.57-.68,6.6-2.06,9.1-1.38,2.5-3.37,4.44-5.97,5.81-2.6,1.38-5.74,2.07-9.41,2.07-3.87,0-6.93-.79-9.18-2.37-2.24-1.58-3.87-3.68-4.89-6.28s-1.53-5.37-1.53-8.33v-42.38h-15.76v46.66c0,5.1.82,9.69,2.45,13.77,1.63,4.08,4.18,7.29,7.65,9.64,3.46,2.34,8.11,3.52,13.92,3.52,4.79,0,8.97-.95,12.54-2.83,3.57-1.89,6.48-4.9,8.72-9.03,1.44-2.65,2.55-5.84,3.32-9.56h.2v19.58h15.76v-71.75h-15.76Z"/>
        <path class="cls-4" d="M457.68,156.76c0,4.8-.79,8.93-2.37,12.39-1.59,3.47-3.86,6.07-6.81,7.81-2.96,1.73-6.53,2.6-10.71,2.6-6.63,0-11.45-2.02-14.46-6.05-3.01-4.02-4.51-9.76-4.51-17.21s1.55-13.41,4.66-17.59c3.11-4.18,7.88-6.27,14.31-6.27s11.09,2.09,14.61,6.27c3.52,4.18,5.28,9.84,5.28,16.98l.76-6.73c-.11-1.42-.25-2.8-.44-4.13-.09-.7-.2-1.39-.32-2.06-.11-.65-.23-1.29-.37-1.92-.67-3.21-1.6-6.09-2.77-8.64-2.09-4.54-5.02-8.03-8.8-10.48-3.77-2.45-8.51-3.62-14.22-3.52-9.08-.1-16.12,3.26-21.12,10.1-4.99,6.83-7.49,16.16-7.49,27.99s2.44,20.79,7.34,27.46c4.9,6.69,11.98,10.03,21.27,10.03,4.28,0,7.98-.67,11.09-1.99,3.11-1.33,5.79-3.29,8.03-5.89,2.24-2.6,4.03-5.82,5.35-9.64.53-1.52.98-3.13,1.36-4.82.12-.5.23-1.02.33-1.54.16-.79.3-1.61.42-2.44.21-1.38.38-2.8.5-4.28l-.92-6.43ZM456.3,140.85l.31,3.98h3.52l.15-3.98h-3.98ZM456.61,167.47l-.16,3.98h3.22v-3.98h-3.06ZM457.68,101.19v90.76h15.76v-90.76h-15.76Z"/>
      </g>
      <g>
        <path class="cls-3" d="M118.58,0v115.18H.13C3.65,52.64,55.02,2.51,118.58,0Z"/>
        <path class="cls-1" d="M65.28,125.01v70.09C29.48,190.73,1.46,161.18,0,125.01h65.28Z"/>
        <path class="cls-2" d="M75.1,125.01h43.49s0,26.88,0,26.88c0,24.02-19.47,43.49-43.49,43.49h0s0-70.37,0-70.37Z"/>
      </g>
    </g>
  </g>
</svg>